<?xml version="1.0" encoding="UTF-8" standalone="no"?>
<!DOCTYPE svg PUBLIC "-//W3C//DTD SVG 1.1//EN" "http://www.w3.org/Graphics/SVG/1.1/DTD/svg11.dtd">
<svg width="100%" height="100%" viewBox="0 0 108 108" version="1.1" xmlns="http://www.w3.org/2000/svg" xmlns:xlink="http://www.w3.org/1999/xlink" xml:space="preserve" xmlns:serif="http://www.serif.com/" style="fill-rule:evenodd;clip-rule:evenodd;stroke-linejoin:round;stroke-miterlimit:2;">
    <g transform="matrix(2.49202,0,0,2.49202,-81.3149,-82.0606)">
        <path d="M72,48.622L72,37.204C72,36.354 71.663,35.539 71.063,34.938C70.463,34.338 69.65,34 68.802,34L40.202,34C38.908,33.998 37.735,34.782 37.243,35.979C37.083,36.369 37,36.785 37,37.207L37,66.909C36.999,68.206 37.785,69.381 38.983,69.876L53.281,75.759C54.059,76.08 54.933,76.08 55.711,75.759L70.01,69.876C71.21,69.383 71.996,68.206 71.993,66.909L71.993,54.281C71.993,52.923 71.321,52.431 70.445,51.993C69.206,51.373 67.967,51.683 67.035,51.993C68.786,51.413 72,50.135 72,48.622ZM66.426,49.475C66.426,50.887 60.234,53.236 58.684,53.857C59.429,53.558 64.176,52.634 65.248,52.967C65.955,53.187 66.426,53.627 66.426,54.586L66.426,67.576C66.426,68.498 65.83,69.329 64.916,69.678L55.274,73.544C54.678,73.771 54.02,73.771 53.424,73.544L41.3,68.748C40.387,68.398 39.79,67.568 39.79,66.646L39.79,39.377C39.79,38.118 40.88,37.105 42.225,37.105L63.989,37.105C65.335,37.105 66.422,38.122 66.422,39.377L66.426,49.475Z" style="fill:rgb(41,41,41);fill-rule:nonzero;"/>
    </g>
</svg>
